<?xml version="1.0" encoding="UTF-8" standalone="no"?>
<svg xmlns="http://www.w3.org/2000/svg" height="400" width="400">
  <path transform="matrix(-1.0634 0 0 -1.0493 565.89 521.46)" d="m157.99 184.38 15.388-16.185c9.0113-9.0113 24.185-5.8854 24.185-5.8854l45.029 6.1614 22.806-22.316c12.015-11.801 22.867 6.2538 18.147 12.476l-11.709 13.61 48.493 8.9816 16.461-19.189c17.594-21.026 30.683-2.0835 22.745 9.0734l-10.637 13.457 72.863 9.5025c62.65-60.29 88.227-85.299 104.71-70.441 16.59 14.953-12.756 44.759-69.828 103.55l10.361 75.07 15.265-12.721c9.0113-7.5094 25.012 4.538 8.4911 20.201l-20.997 19.802 8.8588 49.137 13.12-10.085c11.586-9.2259 25.656 2.9747 9.993 19.71l-20.844 20.997c-0.85822 0.64367 6.805 43.098 6.805 43.098 4.7202 20.812-7.0196 28.416-7.0196 28.416l-14.315 12.476-54.379-153.6c-4.5057-13.517-15.925-28.196-35.006-26.454-10.084 1.0728-35.558 18.27-38.991 22.346l-58.977 56.708c-1.5019 1.0728 9.0734 73.721 9.0734 73.721 0 2.1456-18.699 26.668-18.699 26.668l-37.366-66.517-18.453 8.5828 10.79-16.798-67.284-37.98 25.228-18.453c12.015 2.7892 75.008 9.8702 76.296 9.2265 0 0 51.297-50.873 54.226-53.95 16.95-17.808 22.653-24.462 25.228-33.259 2.5768-8.804-1.8128-21.706-28.416-38.041-36.689-22.528-151.64-61.092-151.64-61.092z"/>
</svg>
